#!OML:ASF F:\VICON\USERDATA\INSTALL\rory3\rory3.ASF
:FULLY-SPECIFIED
:DEGREES
1
root 0.6635830000000005 18.0401 -17.994300000000017 -1.7935199999999982 -3.16594 -5.658910000000004
lfemur -25.68380000000002 2.040230000000003 -14.117700000000006
ltibia 67.51930000000006
lfoot -4.512919999999998 -3.4467399999999984
ltoes -6.189820000000003
rfemur -9.513950000000005 7.674720000000004 33.22149999999999
rtibia 30.755499999999998
rfoot -15.48450000000001 -3.824680000000001
rtoes 11.010799999999982
lowerback nan 0.13722899999999963 3.42181
upperback -0.1861830000000007 0.905344 2.4919299999999978
thorax -7.624259999999998 0.35904800000000003 0.538268
lowerneck -16.1622 -3.14918 -2.2761000000000005
upperneck 22.0065 -3.74248 -0.23559499999999822
head 9.67771 -1.9583 -0.18944000000000027
lclavicle -7.45443e-16 5.963539999999998e-16
lhumerus -31.8404 3.761840000000003 80.8296
lradius 26.825300000000002
lwrist 6.43368
lhand -26.977499999999996 21.8689
lfingers nan
lthumb -0.398369 51.84830000000001
rclavicle -7.45443e-16 5.963539999999998e-16
rhumerus -28.2727 -19.505299999999995 -77.8289
rradius 23.219499999999996
rwrist 5.002669999999999
rhand -14.591700000000007 nan
rfingers nan
rthumb 11.558499999999995 -15.025599999999985
2
root 0.6758250000000001 17.9529 -17.302799999999984 -1.5933700000000013 -3.6592299999999995 -6.05532
lfemur -28.712399999999967 1.9316399999999976 -13.857100000000006
ltibia 62.20170000000002
lfoot -6.997629999999999 -0.596708
ltoes -7.335470000000003
rfemur -7.309559999999997 7.568790000000007 33.85410000000002
rtibia 31.147600000000004
rfoot -17.99800000000001 -4.088649999999998
rtoes 10.456
lowerback nan 0.43833699999999975 4.257479999999996
upperback -0.09772520000000025 1.406060000000001 2.422560000000001
thorax -7.334730000000002 0.5743580000000001 -0.10037599999999902
lowerneck -15.7084 -3.1437000000000004 -2.19065
upperneck 21.6255 -3.75629 -0.27286200000000116
head 9.45632 -1.9626899999999998 -0.20594900000000033
lclavicle 2.1574299999999955e-14 2.872439999999994e-14
lhumerus -32.8958 4.48758 80.982
lradius 26.012599999999996
lwrist 5.6211
lhand -26.6593 21.3774
lfingers nan
lthumb -0.09099640000000098 51.3572
rclavicle 2.1574299999999955e-14 2.872439999999994e-14
rhumerus -26.3842 -16.600500000000004 -79.3894
rradius 25.393700000000003
rwrist 2.410029999999998
rhand -14.758599999999996 nan
rfingers nan
rthumb 11.397500000000006 -14.746100000000009
3
root 0.6885639999999992 17.9603 -16.591499999999996 -1.002369999999997 -4.568959999999999 -6.643049999999993
lfemur -30.37800000000003 1.3803499999999955 -13.151999999999994
ltibia 52.75670000000003
lfoot -6.69883 3.2234999999999996
ltoes -7.759969999999999
rfemur -4.238029999999993 7.608340000000009 34.49389999999999
rtibia 29.279300000000013
rfoot -19.32890000000002 -3.7370699999999966
rtoes 8.807140000000002
lowerback nan 0.9402760000000006 5.237619999999997
upperback -0.05923910000000025 2.1890499999999964 2.3616100000000015
thorax -7.050029999999996 0.9252100000000009 -0.8537320000000002
lowerneck -16.3796 -3.2668600000000003 -1.97364
upperneck 21.6836 -3.96909 -0.26569499999999857
head 9.59842 -2.0394799999999997 -0.2794299999999995
lclavicle -2.3065200000000047e-14 -1.6002199999999962e-14
lhumerus -33.646499999999996 5.12949 81.1313
lradius 25.1694
lwrist 5.23878
lhand -26.572500000000005 20.8873
lfingers nan
lthumb -0.007202310000003154 50.8671
rclavicle -2.3065200000000047e-14 -1.6002199999999962e-14
rhumerus -24.548999999999992 -13.632900000000003 -80.7773
rradius 27.6167
rwrist 0.4356910000000016
rhand -18.4566 nan
rfingers nan
rthumb 7.8296600000000005 -7.10969
4
root 0.7063309999999999 17.9373 -15.877199999999965 -0.5188810000000013 -4.874220000000001 -6.809010000000004
lfemur -30.424600000000062 -1.1304800000000004 -12.282000000000009
ltibia 41.323
lfoot -5.5103599999999995 3.5115599999999967
ltoes -6.544709999999996
rfemur -0.9968690000000056 7.1873800000000045 34.57409999999999
rtibia 27.047199999999968
rfoot -20.04990000000002 -3.376279999999994
rtoes 9.076560000000008
lowerback nan 1.1870299999999987 5.788820000000007
upperback -0.12833599999999962 2.567069999999999 2.249139999999999
thorax -6.893310000000003 1.091410000000001 -1.339950000000001
lowerneck -16.5531 -3.2506599999999994 -1.7390200000000002
upperneck 21.7776 -3.96829 -0.4183260000000024
head 9.65471 -2.03602 -0.3750619999999998
lclavicle 3.926000000000002e-15 -6.7586799999999925e-15
lhumerus -34.826899999999995 6.31467 80.9345
lradius 24.3495
lwrist 4.765520000000001
lhand -26.5148 19.4914
lfingers nan
lthumb 0.048535800000000906 49.4712
rclavicle 3.926000000000002e-15 -6.7586799999999925e-15
rhumerus -22.967700000000004 -10.969000000000012 -81.6214
rradius 29.487100000000005
rwrist -1.1832500000000001
rhand -18.8257 nan
rfingers nan
rthumb 7.473429999999998 -7.67309
5
root 0.71959 17.8974 -15.134400000000001 0.2431410000000067 -5.966480000000006 -7.606710000000008
lfemur -29.604600000000033 -4.929160000000003 -9.54100999999999
ltibia 28.7934
lfoot -3.909299999999996 5.430849999999995
ltoes -5.370199999999998
rfemur 2.1227099999999766 7.557329999999995 35.37360000000001
rtibia 24.92530000000001
rfoot -20.500300000000017 -3.1722199999999963
rtoes 6.556880000000001
lowerback nan 1.7004399999999986 6.71111
upperback -0.29402600000000023 3.341899999999999 2.3130100000000016
thorax -6.645130000000001 1.44406 -1.898060000000003
lowerneck -16.4083 -3.2890400000000004 -1.572540000000001
upperneck 21.6098 -4.083079999999999 -0.3563019999999979
head 9.56656 -2.0689500000000005 -0.3911619999999995
lclavicle -2.668060000000004e-14 -2.5941400000000058e-14
lhumerus -35.657799999999995 7.228190000000002 80.734
lradius 23.328799999999998
lwrist 4.149980000000003
lhand -26.302099999999996 20.2223
lfingers nan
lthumb 0.25396899999999634 50.2019
rclavicle -2.668060000000004e-14 -2.5941400000000058e-14
rhumerus -21.7193 -9.829910000000016 -81.986
rradius 30.772299999999994
rwrist -1.5795999999999912
rhand -18.4307 nan
rfingers nan
rthumb 7.85463 -6.588639999999998
6
root 0.740866 17.868 -14.389299999999965 0.5215819999999947 -6.723350000000002 -7.523239999999999
lfemur -27.725499999999997 -8.46078000000001 -7.870509999999982
ltibia 16.922799999999995
lfoot -6.06773 7.744299999999995
ltoes -0.49805300000000274
rfemur 5.068580000000033 6.904339999999994 35.03650000000002
rtibia 23.572499999999994
rfoot -20.535599999999985 -2.7342799999999983
rtoes 4.766009999999998
lowerback nan 2.130549999999996 6.714710000000001
upperback -0.35694799999999943 3.899289999999999 2.1688499999999986
thorax -6.60656 1.713869999999997 -2.1385600000000053
lowerneck -16.4474 -3.3336 -1.342899999999999
upperneck 21.3983 -4.22284 -0.27798299999999865
head 9.49625 -2.1063 -0.41809699999999905
lclavicle -1.671970000000001e-14 -1.943120000000003e-14
lhumerus -36.51189999999999 8.810949999999998 80.006
lradius 21.884399999999996
lwrist 3.0174699999999977
lhand -26.2877 19.197199999999995
lfingers nan
lthumb 0.267870999999996 49.1768
rclavicle -1.671970000000001e-14 -1.943120000000003e-14
rhumerus -20.905799999999992 -8.921799999999974 -82.2251
rradius 32.239100000000015
rwrist -2.2377000000000065
rhand -19.0644 nan
rfingers nan
rthumb 7.242950000000001 -7.41545
7
root 0.7742580000000007 17.8129 -13.594700000000016 0.5477139999999956 -7.704549999999999 -7.4479999999999915
lfemur -24.794800000000023 -7.76325000000001 -8.294940000000024
ltibia 8.312830000000037
lfoot -5.525009999999998 7.429359999999982
ltoes -0.5667570000000035
rfemur 7.6443600000000025 6.797490000000007 34.51990000000001
rtibia 24.05059999999996
rfoot -20.46549999999999 -1.3771700000000031
rtoes 3.9524799999999995
lowerback nan 2.4547800000000044 6.899039999999992
upperback -0.23933199999999938 4.302550000000001 2.02755
thorax -6.210179999999999 1.9200900000000005 -2.4274100000000054
lowerneck -16.473 -3.1735799999999994 -1.297909999999999
upperneck 21.1396 -4.079940000000001 0.01915440000000157
head 9.41558 -2.0031899999999996 -0.30208800000000025
lclavicle -3.153530000000006e-14 -1.570399999999999e-14
lhumerus -37.42139999999999 10.386200000000006 79.1447
lradius 20.810200000000002
lwrist 2.1524100000000033
lhand -26.193800000000003 18.091799999999996
lfingers nan
lthumb 0.3585989999999972 48.0712
rclavicle -3.153530000000006e-14 -1.570399999999999e-14
rhumerus -20.01880000000001 -8.578449999999991 -82.5105
rradius 32.631899999999995
rwrist -2.01208000000001
rhand -19.612199999999998 nan
rfingers nan
rthumb 6.714169999999999 -6.8818399999999995
